<svg height="100%" stroke-miterlimit="10" style="fill-rule:nonzero;clip-rule:evenodd;stroke-linecap:round;stroke-linejoin:round;" version="1.1" viewBox="0 0 28.8066 34.2094" width="100%" xml:space="preserve" xmlns="http://www.w3.org/2000/svg">
<defs/>
<clipPath id="ArtboardFrame">
<rect height="34.2094" width="28.8066" x="0" y="0"/>
</clipPath>
<g clip-path="url(#ArtboardFrame)" id="Untitled">
<g opacity="1">
<path d="M1 0L29.8066 0L29.8066 0L29.8066 34.2094L29.8066 34.2094L1 34.2094L1 34.2094L1 0L1 0Z" fill="#000000" fill-rule="nonzero" opacity="0" stroke="none"/>
<path d="M26.4894 8.23224L26.4894 28.394C26.4894 31.2278 25.0793 32.6379 22.2862 32.6379L12.8108 32.6379C15.1194 32.3148 17.5182 31.8356 20.1982 31.0922C22.9506 30.3058 24.2116 28.5432 24.2116 25.384L24.2116 5.53406C24.2116 5.07403 24.1765 4.64001 24.1048 4.23684C25.6909 4.76585 26.4894 6.09979 26.4894 8.23224Z" fill="#000000" fill-rule="nonzero" opacity="1" stroke="none"/>
<path d="M1.96174 27.9737C1.96174 30.3329 3.42608 31.5532 5.93443 31.4041C10.4902 31.16 14.5171 30.7397 19.6965 29.316C21.6219 28.7737 22.3675 27.7568 22.3675 25.384L22.3675 5.53406C22.3675 2.83587 20.9169 1.52068 18.3136 2.13082C14.5171 2.98502 10.4902 3.66296 5.60903 3.94769C3.41252 4.08327 1.96174 5.33068 1.96174 7.78481L1.96174 27.9737ZM4.14469 27.5805L4.14469 7.73057C4.14469 6.59164 4.84973 6.1442 5.86665 6.08996C10.5308 5.84591 14.4764 5.16797 18.1915 4.32733C19.4525 4.0426 20.1847 4.69342 20.1847 5.9137L20.1847 25.3027C20.1847 26.5501 19.7643 27.1059 18.7203 27.3772C14.4764 28.5567 10.5308 28.9906 6.02935 29.2211C4.84973 29.2753 4.14469 28.6788 4.14469 27.5805Z" fill="#000000" fill-rule="nonzero" opacity="1" stroke="none"/>
<path d="M8.06836 10.8362C11.9375 10.5901 15.0547 10.0569 18.2402 9.34592C18.8691 9.2092 19.0195 8.89475 19.0195 8.51194C19.0195 8.08811 18.6914 7.71897 18.0898 7.84202C15.0547 8.51194 11.9375 9.05881 8.06836 9.30491C7.52148 9.34592 7.27539 9.67405 7.27539 10.0979C7.27539 10.5354 7.60352 10.8635 8.06836 10.8362ZM8.06836 15.2385C11.9375 14.9924 15.0547 14.4455 18.2402 13.7483C18.8691 13.6115 19.0195 13.2971 19.0195 12.9143C19.0195 12.4905 18.6914 12.1213 18.0898 12.2444C15.0547 12.9143 11.9375 13.4612 8.06836 13.7072C7.52148 13.7483 7.27539 14.0764 7.27539 14.4865C7.27539 14.924 7.60352 15.2658 8.06836 15.2385ZM8.06836 19.6408C11.9375 19.3947 15.0547 18.8479 18.2402 18.1506C18.8691 18.0139 19.0195 17.6994 19.0195 17.3166C19.0195 16.8928 18.6914 16.5237 18.0898 16.6467C15.0547 17.3166 11.9375 17.8635 8.06836 18.1096C7.52148 18.1506 7.27539 18.4787 7.27539 18.8889C7.27539 19.3264 7.60352 19.6682 8.06836 19.6408ZM8.06836 24.0295C10.3105 23.9065 11.8008 23.6877 13.2773 23.4553C13.7285 23.3733 13.9746 23.0178 13.9746 22.6623C13.9746 22.2522 13.6465 21.8557 13.0312 21.9651C11.7188 22.1701 10.2695 22.3752 8.06836 22.4983C7.52148 22.5393 7.27539 22.8674 7.27539 23.2776C7.27539 23.7151 7.60352 24.0569 8.06836 24.0295Z" fill="#000000" fill-rule="nonzero" opacity="0" stroke="none"/>
</g>
<text fill="#000000" font-family="SFCompactRounded-Medium" font-size="14" opacity="1" stroke="none" text-anchor="start" transform="matrix(1 0 0 1 2.60377 9.6047)" x="0" y="0">
<tspan textLength="16.0508" x="0" y="13">00</tspan>
</text>
</g>
</svg>
